<?xml version="1.0" encoding="utf-8" standalone="yes"?> <svg width="1000" height="1000" viewBox="-1 -1 31 31" xmlns="http://www.w3.org/2000/svg" xmlns:xlink="http://www.w3.org/1999/xlink" shape-rendering="crispEdges" id="qr code"><rect id="qr background" fill-opacity="1" fill="rgb(255, 255, 255)" x="-1" y="-1" width="31" height="31"></rect><path fill-opacity="1" fill="rgb(0, 0, 0)" id="qr dark pixels" fill-rule="evenodd" d="M 9 0 L 10 0 L 10 1 L 9 1 z M 12 0 L 16 0 L 16 3 L 14 3 L 14 1 L 13 1 L 13 3 L 12 3 L 12 4 L 9 4 L 9 3 L 8 3 L 8 1 L 9 1 L 9 2 L 11 2 L 11 1 L 12 1 z M 18 0 L 20 0 L 20 1 L 19 1 L 19 2 L 20 2 L 20 3 L 21 3 L 21 4 L 19 4 L 19 3 L 17 3 L 17 1 L 18 1 z M 8 4 L 9 4 L 9 5 L 10 5 L 10 6 L 9 6 L 9 7 L 10 7 L 10 8 L 8 8 z M 14 4 L 19 4 L 19 5 L 20 5 L 20 6 L 19 6 L 19 7 L 18 7 L 18 6 L 17 6 L 17 7 L 18 7 L 18 8 L 17 8 L 17 10 L 16 10 L 16 6 L 15 6 L 15 5 L 14 5 z M 11 5 L 12 5 L 12 6 L 11 6 z M 10 6 L 11 6 L 11 7 L 10 7 z M 12 6 L 13 6 L 13 8 L 12 8 z M 14 6 L 15 6 L 15 8 L 14 8 z M 20 6 L 21 6 L 21 8 L 20 8 L 20 9 L 19 9 L 19 7 L 20 7 z M 0 8 L 2 8 L 2 9 L 0 9 z M 3 8 L 4 8 L 4 9 L 3 9 z M 6 8 L 8 8 L 8 9 L 6 9 z M 10 8 L 11 8 L 11 9 L 12 9 L 12 10 L 11 10 L 11 11 L 9 11 L 9 13 L 12 13 L 12 12 L 13 12 L 13 15 L 16 15 L 16 16 L 15 16 L 15 17 L 13 17 L 13 16 L 12 16 L 12 14 L 11 14 L 11 15 L 10 15 L 10 14 L 8 14 L 8 15 L 6 15 L 6 16 L 9 16 L 9 17 L 8 17 L 8 18 L 7 18 L 7 17 L 6 17 L 6 18 L 5 18 L 5 14 L 4 14 L 4 13 L 5 13 L 5 11 L 6 11 L 6 12 L 8 12 L 8 11 L 6 11 L 6 10 L 10 10 zM 6 13 L 7 13 L 7 14 L 6 14 z M 22 8 L 25 8 L 25 9 L 23 9 L 23 10 L 22 10 z M 26 8 L 28 8 L 28 9 L 26 9 z M 2 9 L 3 9 L 3 10 L 4 10 L 4 9 L 6 9 L 6 10 L 5 10 L 5 11 L 2 11 L 2 12 L 1 12 L 1 10 L 2 10 z M 20 9 L 21 9 L 21 10 L 20 10 z M 25 9 L 26 9 L 26 10 L 28 10 L 28 12 L 29 12 L 29 13 L 27 13 L 27 12 L 26 12 L 26 11 L 25 11 z M 28 9 L 29 9 L 29 10 L 28 10 z M 18 10 L 20 10 L 20 11 L 18 11 z M 23 10 L 24 10 L 24 11 L 23 11 z M 14 11 L 15 11 L 15 12 L 14 12 z M 16 11 L 17 11 L 17 12 L 18 12 L 18 15 L 19 15 L 19 16 L 18 16 L 18 17 L 17 17 L 17 18 L 18 18 L 18 17 L 19 17 L 19 19 L 18 19 L 18 20 L 15 20 L 15 19 L 16 19 L 16 16 L 17 16 L 17 15 L 16 15 L 16 13 L 15 13 L 15 12 L 16 12 z M 22 11 L 23 11 L 23 12 L 24 12 L 24 13 L 22 13 L 22 15 L 20 15 L 20 14 L 19 14 L 19 13 L 21 13 L 21 12 L 22 12 z M 3 12 L 4 12 L 4 13 L 3 13 z M 25 12 L 26 12 L 26 13 L 25 13 z M 0 13 L 1 13 L 1 16 L 0 16 z M 2 13 L 3 13 L 3 14 L 2 14 z M 3 14 L 4 14 L 4 18 L 5 18 L 5 19 L 3 19 L 3 20 L 2 20 L 2 18 L 3 18 L 3 17 L 1 17 L 1 16 L 2 16 L 2 15 L 3 15 z M 24 14 L 29 14 L 29 15 L 28 15 L 28 17 L 27 17 L 27 15 L 26 15 L 26 16 L 25 16 L 25 15 L 24 15 z M 9 15 L 10 15 L 10 16 L 9 16 z M 11 16 L 12 16 L 12 17 L 11 17 z M 19 16 L 20 16 L 20 17 L 19 17 z M 21 16 L 22 16 L 22 17 L 21 17 z M 22 17 L 24 17 L 24 18 L 25 18 L 25 19 L 23 19 L 23 18 L 22 18 z M 25 17 L 26 17 L 26 18 L 25 18 z M 28 17 L 29 17 L 29 20 L 27 20 L 27 18 L 28 18 z M 0 18 L 1 18 L 1 19 L 0 19 z M 6 18 L 7 18 L 7 19 L 6 19 z M 8 18 L 10 18 L 10 19 L 9 19 L 9 20 L 10 20 L 10 21 L 9 21 L 9 23 L 8 23 L 8 20 L 7 20 L 7 19 L 8 19 z M 13 18 L 14 18 L 14 20 L 13 20 z M 5 19 L 6 19 L 6 20 L 7 20 L 7 21 L 3 21 L 3 20 L 5 20 z M 10 19 L 12 19 L 12 20 L 13 20 L 13 21 L 14 21 L 14 22 L 15 22 L 15 23 L 14 23 L 14 24 L 12 24 L 12 28 L 11 28 L 11 22 L 10 22 L 10 21 L 11 21 L 11 20 L 10 20 z M 19 19 L 20 19 L 20 20 L 19 20 z M 22 19 L 23 19 L 23 20 L 22 20 z M 0 20 L 1 20 L 1 21 L 0 21 z M 14 20 L 15 20 L 15 21 L 14 21 z M 26 20 L 27 20 L 27 21 L 29 21 L 29 22 L 28 22 L 28 23 L 29 23 L 29 25 L 28 25 L 28 26 L 27 26 L 27 27 L 25 27 L 25 28 L 26 28 L 26 29 L 23 29 L 23 28 L 24 28 L 24 25 L 27 25 L 27 24 L 25 24 L 25 23 L 27 23 L 27 22 L 26 22 z M 16 21 L 17 21 L 17 22 L 18 22 L 18 23 L 16 23 z M 9 23 L 10 23 L 10 25 L 9 25 z M 15 23 L 16 23 L 16 24 L 15 24 z M 18 23 L 19 23 L 19 24 L 18 24 z M 14 24 L 15 24 L 15 27 L 13 27 L 13 25 L 14 25 z M 16 24 L 18 24 L 18 25 L 16 25 z M 8 25 L 9 25 L 9 26 L 8 26 z M 19 25 L 20 25 L 20 26 L 19 26 z M 22 25 L 23 25 L 23 26 L 22 26 z M 9 26 L 10 26 L 10 29 L 8 29 L 8 27 L 9 27 z M 18 26 L 19 26 L 19 27 L 21 27 L 21 26 L 22 26 L 22 28 L 21 28 L 21 29 L 20 29 L 20 28 L 18 28 L 18 29 L 16 29 L 16 28 L 15 28 L 15 27 L 18 27 z M 28 26 L 29 26 L 29 27 L 28 27 z M 27 27 L 28 27 L 28 29 L 27 29 z M 12 28 L 14 28 L 14 29 L 12 29 z"></path><path id="qr squares" d="M0,0h7h0v0v7v0h0h-7h0v0v-7v0h0zM1,1h5h0v0v5v0h0h-5h0v0v-5v0h0zM2,2h3h0v0v3v0h0h-3h0v0v-3v0h0z M22,0h7h0v0v7v0h0h-7h0v0v-7v0h0zM23,1h5h0v0v5v0h0h-5h0v0v-5v0h0zM24,2h3h0v0v3v0h0h-3h0v0v-3v0h0z M0,22h7h0v0v7v0h0h-7h0v0v-7v0h0zM1,23h5h0v0v5v0h0h-5h0v0v-5v0h0zM2,24h3h0v0v3v0h0h-3h0v0v-3v0h0zM20,20h5h0v0v5v0h0h-5h0v0v-5v0h0zM21,21h3h0v0v3v0h0h-3h0v0v-3v0h0zM22,22h1h0v0v1v0h0h-1h0v0v-1v0h0z" fill-rule="evenodd" fill-opacity="1" fill="rgb(0, 0, 0)"></path></svg>