<?xml version="1.0" encoding="UTF-8" standalone="no"?>
<!-- Created with Inkscape (http://www.inkscape.org/) -->

<svg
   version="1.1"
   id="svg2"
   xml:space="preserve"
   width="576"
   height="384"
   viewBox="0 0 576 384"
   xmlns="http://www.w3.org/2000/svg"
   xmlns:svg="http://www.w3.org/2000/svg"><defs
     id="defs6"><clipPath
       clipPathUnits="userSpaceOnUse"
       id="clipPath18"><path
         d="M 54,36 H 388.8 V 253.44 H 54 Z"
         id="path16" /></clipPath><clipPath
       clipPathUnits="userSpaceOnUse"
       id="clipPath28"><path
         d="M 54,36 H 388.8 V 253.44 H 54 Z"
         id="path26" /></clipPath><clipPath
       clipPathUnits="userSpaceOnUse"
       id="clipPath38"><path
         d="M 54,36 H 388.8 V 253.44 H 54 Z"
         id="path36" /></clipPath><clipPath
       clipPathUnits="userSpaceOnUse"
       id="clipPath48"><path
         d="M 54,36 H 388.8 V 253.44 H 54 Z"
         id="path46" /></clipPath><clipPath
       clipPathUnits="userSpaceOnUse"
       id="clipPath58"><path
         d="M 54,36 H 388.8 V 253.44 H 54 Z"
         id="path56" /></clipPath><clipPath
       clipPathUnits="userSpaceOnUse"
       id="clipPath68"><path
         d="M 54,36 H 388.8 V 253.44 H 54 Z"
         id="path66" /></clipPath><clipPath
       clipPathUnits="userSpaceOnUse"
       id="clipPath78"><path
         d="M 54,36 H 388.8 V 253.44 H 54 Z"
         id="path76" /></clipPath><clipPath
       clipPathUnits="userSpaceOnUse"
       id="clipPath88"><path
         d="M 54,36 H 388.8 V 253.44 H 54 Z"
         id="path86" /></clipPath><clipPath
       clipPathUnits="userSpaceOnUse"
       id="clipPath98"><path
         d="M 54,36 H 388.8 V 253.44 H 54 Z"
         id="path96" /></clipPath><clipPath
       clipPathUnits="userSpaceOnUse"
       id="clipPath108"><path
         d="M 54,36 H 388.8 V 253.44 H 54 Z"
         id="path106" /></clipPath><clipPath
       clipPathUnits="userSpaceOnUse"
       id="clipPath118"><path
         d="M 54,36 H 388.8 V 253.44 H 54 Z"
         id="path116" /></clipPath><clipPath
       clipPathUnits="userSpaceOnUse"
       id="clipPath128"><path
         d="M 54,36 H 388.8 V 253.44 H 54 Z"
         id="path126" /></clipPath><clipPath
       clipPathUnits="userSpaceOnUse"
       id="clipPath138"><path
         d="M 54,36 H 388.8 V 253.44 H 54 Z"
         id="path136" /></clipPath><clipPath
       clipPathUnits="userSpaceOnUse"
       id="clipPath148"><path
         d="M 54,36 H 388.8 V 253.44 H 54 Z"
         id="path146" /></clipPath><clipPath
       clipPathUnits="userSpaceOnUse"
       id="clipPath158"><path
         d="M 54,36 H 388.8 V 253.44 H 54 Z"
         id="path156" /></clipPath><clipPath
       clipPathUnits="userSpaceOnUse"
       id="clipPath168"><path
         d="M 54,36 H 388.8 V 253.44 H 54 Z"
         id="path166" /></clipPath><clipPath
       clipPathUnits="userSpaceOnUse"
       id="clipPath178"><path
         d="M 54,36 H 388.8 V 253.44 H 54 Z"
         id="path176" /></clipPath><clipPath
       clipPathUnits="userSpaceOnUse"
       id="clipPath188"><path
         d="M 54,36 H 388.8 V 253.44 H 54 Z"
         id="path186" /></clipPath><clipPath
       clipPathUnits="userSpaceOnUse"
       id="clipPath198"><path
         d="M 54,36 H 388.8 V 253.44 H 54 Z"
         id="path196" /></clipPath><clipPath
       clipPathUnits="userSpaceOnUse"
       id="clipPath208"><path
         d="M 54,36 H 388.8 V 253.44 H 54 Z"
         id="path206" /></clipPath><clipPath
       clipPathUnits="userSpaceOnUse"
       id="clipPath218"><path
         d="M 54,36 H 388.8 V 253.44 H 54 Z"
         id="path216" /></clipPath><clipPath
       clipPathUnits="userSpaceOnUse"
       id="clipPath228"><path
         d="M 54,36 H 388.8 V 253.44 H 54 Z"
         id="path226" /></clipPath><clipPath
       clipPathUnits="userSpaceOnUse"
       id="clipPath238"><path
         d="M 54,36 H 388.8 V 253.44 H 54 Z"
         id="path236" /></clipPath><clipPath
       clipPathUnits="userSpaceOnUse"
       id="clipPath248"><path
         d="M 54,36 H 388.8 V 253.44 H 54 Z"
         id="path246" /></clipPath><clipPath
       clipPathUnits="userSpaceOnUse"
       id="clipPath258"><path
         d="M 54,36 H 388.8 V 253.44 H 54 Z"
         id="path256" /></clipPath><clipPath
       clipPathUnits="userSpaceOnUse"
       id="clipPath268"><path
         d="M 54,36 H 388.8 V 253.44 H 54 Z"
         id="path266" /></clipPath><clipPath
       clipPathUnits="userSpaceOnUse"
       id="clipPath278"><path
         d="M 54,36 H 388.8 V 253.44 H 54 Z"
         id="path276" /></clipPath><clipPath
       clipPathUnits="userSpaceOnUse"
       id="clipPath288"><path
         d="M 54,36 H 388.8 V 253.44 H 54 Z"
         id="path286" /></clipPath><clipPath
       clipPathUnits="userSpaceOnUse"
       id="clipPath298"><path
         d="M 54,36 H 388.8 V 253.44 H 54 Z"
         id="path296" /></clipPath><clipPath
       clipPathUnits="userSpaceOnUse"
       id="clipPath308"><path
         d="M 54,36 H 388.8 V 253.44 H 54 Z"
         id="path306" /></clipPath><clipPath
       clipPathUnits="userSpaceOnUse"
       id="clipPath318"><path
         d="M 54,36 H 388.8 V 253.44 H 54 Z"
         id="path316" /></clipPath><clipPath
       clipPathUnits="userSpaceOnUse"
       id="clipPath328"><path
         d="M 54,36 H 388.8 V 253.44 H 54 Z"
         id="path326" /></clipPath><clipPath
       clipPathUnits="userSpaceOnUse"
       id="clipPath338"><path
         d="M 54,36 H 388.8 V 253.44 H 54 Z"
         id="path336" /></clipPath><clipPath
       clipPathUnits="userSpaceOnUse"
       id="clipPath348"><path
         d="M 54,36 H 388.8 V 253.44 H 54 Z"
         id="path346" /></clipPath><clipPath
       clipPathUnits="userSpaceOnUse"
       id="clipPath358"><path
         d="M 54,36 H 388.8 V 253.44 H 54 Z"
         id="path356" /></clipPath><clipPath
       clipPathUnits="userSpaceOnUse"
       id="clipPath368"><path
         d="M 54,36 H 388.8 V 253.44 H 54 Z"
         id="path366" /></clipPath><clipPath
       clipPathUnits="userSpaceOnUse"
       id="clipPath378"><path
         d="M 54,36 H 388.8 V 253.44 H 54 Z"
         id="path376" /></clipPath><clipPath
       clipPathUnits="userSpaceOnUse"
       id="clipPath388"><path
         d="M 54,36 H 388.8 V 253.44 H 54 Z"
         id="path386" /></clipPath><clipPath
       clipPathUnits="userSpaceOnUse"
       id="clipPath398"><path
         d="M 54,36 H 388.8 V 253.44 H 54 Z"
         id="path396" /></clipPath><clipPath
       clipPathUnits="userSpaceOnUse"
       id="clipPath408"><path
         d="M 54,36 H 388.8 V 253.44 H 54 Z"
         id="path406" /></clipPath><clipPath
       clipPathUnits="userSpaceOnUse"
       id="clipPath418"><path
         d="M 54,36 H 388.8 V 253.44 H 54 Z"
         id="path416" /></clipPath><clipPath
       clipPathUnits="userSpaceOnUse"
       id="clipPath428"><path
         d="M 54,36 H 388.8 V 253.44 H 54 Z"
         id="path426" /></clipPath><clipPath
       clipPathUnits="userSpaceOnUse"
       id="clipPath438"><path
         d="M 54,36 H 388.8 V 253.44 H 54 Z"
         id="path436" /></clipPath><clipPath
       clipPathUnits="userSpaceOnUse"
       id="clipPath448"><path
         d="M 54,36 H 388.8 V 253.44 H 54 Z"
         id="path446" /></clipPath><clipPath
       clipPathUnits="userSpaceOnUse"
       id="clipPath458"><path
         d="M 54,36 H 388.8 V 253.44 H 54 Z"
         id="path456" /></clipPath><clipPath
       clipPathUnits="userSpaceOnUse"
       id="clipPath468"><path
         d="M 54,36 H 388.8 V 253.44 H 54 Z"
         id="path466" /></clipPath><clipPath
       clipPathUnits="userSpaceOnUse"
       id="clipPath478"><path
         d="M 54,36 H 388.8 V 253.44 H 54 Z"
         id="path476" /></clipPath><clipPath
       clipPathUnits="userSpaceOnUse"
       id="clipPath488"><path
         d="M 54,36 H 388.8 V 253.44 H 54 Z"
         id="path486" /></clipPath><clipPath
       clipPathUnits="userSpaceOnUse"
       id="clipPath498"><path
         d="M 54,36 H 388.8 V 253.44 H 54 Z"
         id="path496" /></clipPath><clipPath
       clipPathUnits="userSpaceOnUse"
       id="clipPath508"><path
         d="M 54,36 H 388.8 V 253.44 H 54 Z"
         id="path506" /></clipPath><clipPath
       clipPathUnits="userSpaceOnUse"
       id="clipPath518"><path
         d="M 54,36 H 388.8 V 253.44 H 54 Z"
         id="path516" /></clipPath><clipPath
       clipPathUnits="userSpaceOnUse"
       id="clipPath528"><path
         d="M 54,36 H 388.8 V 253.44 H 54 Z"
         id="path526" /></clipPath><clipPath
       clipPathUnits="userSpaceOnUse"
       id="clipPath538"><path
         d="M 54,36 H 388.8 V 253.44 H 54 Z"
         id="path536" /></clipPath><clipPath
       clipPathUnits="userSpaceOnUse"
       id="clipPath548"><path
         d="M 54,36 H 388.8 V 253.44 H 54 Z"
         id="path546" /></clipPath><clipPath
       clipPathUnits="userSpaceOnUse"
       id="clipPath558"><path
         d="M 54,36 H 388.8 V 253.44 H 54 Z"
         id="path556" /></clipPath><clipPath
       clipPathUnits="userSpaceOnUse"
       id="clipPath568"><path
         d="M 54,36 H 388.8 V 253.44 H 54 Z"
         id="path566" /></clipPath><clipPath
       clipPathUnits="userSpaceOnUse"
       id="clipPath578"><path
         d="M 54,36 H 388.8 V 253.44 H 54 Z"
         id="path576" /></clipPath><clipPath
       clipPathUnits="userSpaceOnUse"
       id="clipPath690"><path
         d="M 54,36 H 388.8 V 253.44 H 54 Z"
         id="path688" /></clipPath><clipPath
       clipPathUnits="userSpaceOnUse"
       id="clipPath700"><path
         d="M 54,36 H 388.8 V 253.44 H 54 Z"
         id="path698" /></clipPath></defs><g
     id="layer1"><rect
       style="fill:#ffffff"
       id="rect1574"
       width="602.87451"
       height="407.66241"
       x="-2.754663"
       y="-8.0902185" /></g><g
     id="g8"
     transform="matrix(1.3333333,0,0,-1.3333333,0,384)"><path
       d="M 54,36 H 388.8 V 253.44 H 54 Z"
       style="fill:#ffffff;fill-opacity:1;fill-rule:nonzero;stroke:none"
       id="path10" /><g
       id="g12"><g
         id="g14"
         clip-path="url(#clipPath18)"><path
           d="m 104.19628,36 h 9.01567 v 9.263189 h -9.01567 z"
           style="fill:#1f77b4;fill-opacity:0.4;fill-rule:nonzero;stroke:none"
           id="path20" /></g></g><g
       id="g22"><g
         id="g24"
         clip-path="url(#clipPath28)"><path
           d="m 113.21195,36 h 9.01568 v 3.969938 h -9.01568 z"
           style="fill:#1f77b4;fill-opacity:0.4;fill-rule:nonzero;stroke:none"
           id="path30" /></g></g><g
       id="g32"><g
         id="g34"
         clip-path="url(#clipPath38)"><path
           d="m 122.22763,36 h 9.01566 v 15.879752 h -9.01566 z"
           style="fill:#1f77b4;fill-opacity:0.4;fill-rule:nonzero;stroke:none"
           id="path40" /></g></g><g
       id="g42"><g
         id="g44"
         clip-path="url(#clipPath48)"><path
           d="m 131.24329,36 h 9.01568 v 41.022694 h -9.01568 z"
           style="fill:#1f77b4;fill-opacity:0.4;fill-rule:nonzero;stroke:none"
           id="path50" /></g></g><g
       id="g52"><g
         id="g54"
         clip-path="url(#clipPath58)"><path
           d="m 140.25897,36 h 9.01567 v 75.42882 h -9.01567 z"
           style="fill:#1f77b4;fill-opacity:0.4;fill-rule:nonzero;stroke:none"
           id="path60" /></g></g><g
       id="g62"><g
         id="g64"
         clip-path="url(#clipPath68)"><path
           d="m 149.27464,36 h 9.01567 v 89.98526 h -9.01567 z"
           style="fill:#1f77b4;fill-opacity:0.4;fill-rule:nonzero;stroke:none"
           id="path70" /></g></g><g
       id="g72"><g
         id="g74"
         clip-path="url(#clipPath78)"><path
           d="m 158.29031,36 h 9.01567 v 150.85765 h -9.01567 z"
           style="fill:#1f77b4;fill-opacity:0.4;fill-rule:nonzero;stroke:none"
           id="path80" /></g></g><g
       id="g82"><g
         id="g84"
         clip-path="url(#clipPath88)"><path
           d="m 167.30598,36 h 9.01567 v 140.27115 h -9.01567 z"
           style="fill:#1f77b4;fill-opacity:0.4;fill-rule:nonzero;stroke:none"
           id="path90" /></g></g><g
       id="g92"><g
         id="g94"
         clip-path="url(#clipPath98)"><path
           d="m 176.32165,36 h 9.01567 v 168.06071 h -9.01567 z"
           style="fill:#1f77b4;fill-opacity:0.4;fill-rule:nonzero;stroke:none"
           id="path100" /></g></g><g
       id="g102"><g
         id="g104"
         clip-path="url(#clipPath108)"><path
           d="m 185.33732,36 h 9.01567 v 104.5417 h -9.01567 z"
           style="fill:#1f77b4;fill-opacity:0.4;fill-rule:nonzero;stroke:none"
           id="path110" /></g></g><g
       id="g112"><g
         id="g114"
         clip-path="url(#clipPath118)"><path
           d="m 194.35299,36 h 9.01567 v 82.04539 h -9.01567 z"
           style="fill:#1f77b4;fill-opacity:0.4;fill-rule:nonzero;stroke:none"
           id="path120" /></g></g><g
       id="g122"><g
         id="g124"
         clip-path="url(#clipPath128)"><path
           d="m 203.36866,36 h 9.01567 v 117.77483 h -9.01567 z"
           style="fill:#1f77b4;fill-opacity:0.4;fill-rule:nonzero;stroke:none"
           id="path130" /></g></g><g
       id="g132"><g
         id="g134"
         clip-path="url(#clipPath138)"><path
           d="M 212.38433,36 H 221.4 v 60.872384 h -9.01567 z"
           style="fill:#1f77b4;fill-opacity:0.4;fill-rule:nonzero;stroke:none"
           id="path140" /></g></g><g
       id="g142"><g
         id="g144"
         clip-path="url(#clipPath148)"><path
           d="m 221.4,36 h 9.01567 V 90.255821 H 221.4 Z"
           style="fill:#1f77b4;fill-opacity:0.4;fill-rule:nonzero;stroke:none"
           id="path150" /></g></g><g
       id="g152"><g
         id="g154"
         clip-path="url(#clipPath158)"><path
           d="m 230.41567,36 h 9.01567 v 38.376068 h -9.01567 z"
           style="fill:#1f77b4;fill-opacity:0.4;fill-rule:nonzero;stroke:none"
           id="path160" /></g></g><g
       id="g162"><g
         id="g164"
         clip-path="url(#clipPath168)"><path
           d="m 239.43134,36 h 9.01567 v 9.263189 h -9.01567 z"
           style="fill:#1f77b4;fill-opacity:0.4;fill-rule:nonzero;stroke:none"
           id="path170" /></g></g><g
       id="g172"><g
         id="g174"
         clip-path="url(#clipPath178)"><path
           d="m 248.44701,36 h 9.01567 v 31.759505 h -9.01567 z"
           style="fill:#1f77b4;fill-opacity:0.4;fill-rule:nonzero;stroke:none"
           id="path180" /></g></g><g
       id="g182"><g
         id="g184"
         clip-path="url(#clipPath188)"><path
           d="m 257.46268,36 h 9.01567 v 19.849691 h -9.01567 z"
           style="fill:#1f77b4;fill-opacity:0.4;fill-rule:nonzero;stroke:none"
           id="path190" /></g></g><g
       id="g192"><g
         id="g194"
         clip-path="url(#clipPath198)"><path
           d="m 266.47835,36 h 9.01567 v 11.909814 h -9.01567 z"
           style="fill:#1f77b4;fill-opacity:0.4;fill-rule:nonzero;stroke:none"
           id="path200" /></g></g><g
       id="g202"><g
         id="g204"
         clip-path="url(#clipPath208)"><path
           d="m 275.49402,36 h 9.01567 v 7.939876 h -9.01567 z"
           style="fill:#1f77b4;fill-opacity:0.4;fill-rule:nonzero;stroke:none"
           id="path210" /></g></g><g
       id="g212"><g
         id="g214"
         clip-path="url(#clipPath218)"><path
           d="m 284.50969,36 h 9.01567 v 14.55644 h -9.01567 z"
           style="fill:#1f77b4;fill-opacity:0.4;fill-rule:nonzero;stroke:none"
           id="path220" /></g></g><g
       id="g222"><g
         id="g224"
         clip-path="url(#clipPath228)"><path
           d="m 293.52536,36 h 9.01567 v 7.939876 h -9.01567 z"
           style="fill:#1f77b4;fill-opacity:0.4;fill-rule:nonzero;stroke:none"
           id="path230" /></g></g><g
       id="g232"><g
         id="g234"
         clip-path="url(#clipPath238)"><path
           d="m 302.54103,36 h 9.01567 v 7.939876 h -9.01567 z"
           style="fill:#1f77b4;fill-opacity:0.4;fill-rule:nonzero;stroke:none"
           id="path240" /></g></g><g
       id="g242"><g
         id="g244"
         clip-path="url(#clipPath248)"><path
           d="m 311.5567,36 h 9.01567 v 10.586502 h -9.01567 z"
           style="fill:#1f77b4;fill-opacity:0.4;fill-rule:nonzero;stroke:none"
           id="path250" /></g></g><g
       id="g252"><g
         id="g254"
         clip-path="url(#clipPath258)"><path
           d="m 320.57237,36 h 9.01568 v 9.263189 h -9.01568 z"
           style="fill:#1f77b4;fill-opacity:0.4;fill-rule:nonzero;stroke:none"
           id="path260" /></g></g><g
       id="g262"><g
         id="g264"
         clip-path="url(#clipPath268)"><path
           d="m 329.58805,36 h 9.01567 v 39.699381 h -9.01567 z"
           style="fill:#1f77b4;fill-opacity:0.4;fill-rule:nonzero;stroke:none"
           id="path270" /></g></g><g
       id="g272"><g
         id="g274"
         clip-path="url(#clipPath278)"><path
           d="M 115.35854,36 H 122.56 v 1.656686 h -7.20146 z"
           style="fill:#ff7f0e;fill-opacity:0.4;fill-rule:nonzero;stroke:none"
           id="path280" /></g></g><g
       id="g282"><g
         id="g284"
         clip-path="url(#clipPath288)"><path
           d="m 122.56,36 h 7.20146 v 0 z"
           style="fill:#ff7f0e;fill-opacity:0.4;fill-rule:nonzero;stroke:none"
           id="path290" /></g></g><g
       id="g292"><g
         id="g294"
         clip-path="url(#clipPath298)"><path
           d="m 129.76146,36 h 7.20145 v 3.313371 h -7.20145 z"
           style="fill:#ff7f0e;fill-opacity:0.4;fill-rule:nonzero;stroke:none"
           id="path300" /></g></g><g
       id="g302"><g
         id="g304"
         clip-path="url(#clipPath308)"><path
           d="m 136.96291,36 h 7.20146 v 1.656686 h -7.20146 z"
           style="fill:#ff7f0e;fill-opacity:0.4;fill-rule:nonzero;stroke:none"
           id="path310" /></g></g><g
       id="g312"><g
         id="g314"
         clip-path="url(#clipPath318)"><path
           d="m 144.16437,36 h 7.20146 v 19.880229 h -7.20146 z"
           style="fill:#ff7f0e;fill-opacity:0.4;fill-rule:nonzero;stroke:none"
           id="path320" /></g></g><g
       id="g322"><g
         id="g324"
         clip-path="url(#clipPath328)"><path
           d="m 151.36583,36 h 7.20146 v 21.536914 h -7.20146 z"
           style="fill:#ff7f0e;fill-opacity:0.4;fill-rule:nonzero;stroke:none"
           id="path330" /></g></g><g
       id="g332"><g
         id="g334"
         clip-path="url(#clipPath338)"><path
           d="m 158.56729,36 h 7.20145 v 92.7744 h -7.20145 z"
           style="fill:#ff7f0e;fill-opacity:0.4;fill-rule:nonzero;stroke:none"
           id="path340" /></g></g><g
       id="g342"><g
         id="g344"
         clip-path="url(#clipPath348)"><path
           d="m 165.76874,36 h 7.20146 v 99.40114 h -7.20146 z"
           style="fill:#ff7f0e;fill-opacity:0.4;fill-rule:nonzero;stroke:none"
           id="path350" /></g></g><g
       id="g352"><g
         id="g354"
         clip-path="url(#clipPath358)"><path
           d="m 172.9702,36 h 7.20146 v 140.81829 h -7.20146 z"
           style="fill:#ff7f0e;fill-opacity:0.4;fill-rule:nonzero;stroke:none"
           id="path360" /></g></g><g
       id="g362"><g
         id="g364"
         clip-path="url(#clipPath368)"><path
           d="m 180.17166,36 h 7.20145 v 200.45897 h -7.20145 z"
           style="fill:#ff7f0e;fill-opacity:0.4;fill-rule:nonzero;stroke:none"
           id="path370" /></g></g><g
       id="g372"><g
         id="g374"
         clip-path="url(#clipPath378)"><path
           d="m 187.37311,36 h 7.20146 v 177.26537 h -7.20146 z"
           style="fill:#ff7f0e;fill-opacity:0.4;fill-rule:nonzero;stroke:none"
           id="path380" /></g></g><g
       id="g382"><g
         id="g384"
         clip-path="url(#clipPath388)"><path
           d="m 194.57457,36 h 7.20146 v 104.3712 h -7.20146 z"
           style="fill:#ff7f0e;fill-opacity:0.4;fill-rule:nonzero;stroke:none"
           id="path390" /></g></g><g
       id="g392"><g
         id="g394"
         clip-path="url(#clipPath398)"><path
           d="m 201.77603,36 h 7.20146 v 207.08571 h -7.20146 z"
           style="fill:#ff7f0e;fill-opacity:0.4;fill-rule:nonzero;stroke:none"
           id="path400" /></g></g><g
       id="g402"><g
         id="g404"
         clip-path="url(#clipPath408)"><path
           d="m 208.97749,36 h 7.20145 v 140.81829 h -7.20145 z"
           style="fill:#ff7f0e;fill-opacity:0.4;fill-rule:nonzero;stroke:none"
           id="path410" /></g></g><g
       id="g412"><g
         id="g414"
         clip-path="url(#clipPath418)"><path
           d="m 216.17894,36 h 7.20146 v 41.417143 h -7.20146 z"
           style="fill:#ff7f0e;fill-opacity:0.4;fill-rule:nonzero;stroke:none"
           id="path420" /></g></g><g
       id="g422"><g
         id="g424"
         clip-path="url(#clipPath428)"><path
           d="m 223.3804,36 h 7.20146 v 137.50491 h -7.20146 z"
           style="fill:#ff7f0e;fill-opacity:0.4;fill-rule:nonzero;stroke:none"
           id="path430" /></g></g><g
       id="g432"><g
         id="g434"
         clip-path="url(#clipPath438)"><path
           d="m 230.58186,36 h 7.20145 v 69.5808 h -7.20145 z"
           style="fill:#ff7f0e;fill-opacity:0.4;fill-rule:nonzero;stroke:none"
           id="path440" /></g></g><g
       id="g442"><g
         id="g444"
         clip-path="url(#clipPath448)"><path
           d="m 237.78331,36 h 7.20146 v 34.7904 h -7.20146 z"
           style="fill:#ff7f0e;fill-opacity:0.4;fill-rule:nonzero;stroke:none"
           id="path450" /></g></g><g
       id="g452"><g
         id="g454"
         clip-path="url(#clipPath458)"><path
           d="m 244.98477,36 h 7.20146 v 59.640686 h -7.20146 z"
           style="fill:#ff7f0e;fill-opacity:0.4;fill-rule:nonzero;stroke:none"
           id="path460" /></g></g><g
       id="g462"><g
         id="g464"
         clip-path="url(#clipPath468)"><path
           d="m 252.18623,36 h 7.20146 v 0 z"
           style="fill:#ff7f0e;fill-opacity:0.4;fill-rule:nonzero;stroke:none"
           id="path470" /></g></g><g
       id="g472"><g
         id="g474"
         clip-path="url(#clipPath478)"><path
           d="m 259.38769,36 h 7.20145 v 38.103771 h -7.20145 z"
           style="fill:#ff7f0e;fill-opacity:0.4;fill-rule:nonzero;stroke:none"
           id="path480" /></g></g><g
       id="g482"><g
         id="g484"
         clip-path="url(#clipPath488)"><path
           d="m 266.58914,36 h 7.20146 v 4.970057 h -7.20146 z"
           style="fill:#ff7f0e;fill-opacity:0.4;fill-rule:nonzero;stroke:none"
           id="path490" /></g></g><g
       id="g492"><g
         id="g494"
         clip-path="url(#clipPath498)"><path
           d="m 273.7906,36 h 7.20146 v 8.283429 h -7.20146 z"
           style="fill:#ff7f0e;fill-opacity:0.4;fill-rule:nonzero;stroke:none"
           id="path500" /></g></g><g
       id="g502"><g
         id="g504"
         clip-path="url(#clipPath508)"><path
           d="m 280.99206,36 h 7.20146 v 13.253486 h -7.20146 z"
           style="fill:#ff7f0e;fill-opacity:0.4;fill-rule:nonzero;stroke:none"
           id="path510" /></g></g><g
       id="g512"><g
         id="g514"
         clip-path="url(#clipPath518)"><path
           d="m 288.19352,36 h 7.20145 v 1.656686 h -7.20145 z"
           style="fill:#ff7f0e;fill-opacity:0.4;fill-rule:nonzero;stroke:none"
           id="path520" /></g></g><g
       id="g522"><g
         id="g524"
         clip-path="url(#clipPath528)"><path
           d="m 295.39497,36 h 7.20146 v 8.283429 h -7.20146 z"
           style="fill:#ff7f0e;fill-opacity:0.4;fill-rule:nonzero;stroke:none"
           id="path530" /></g></g><g
       id="g532"><g
         id="g534"
         clip-path="url(#clipPath538)"><path
           d="m 302.59643,36 h 7.20146 v 4.970057 h -7.20146 z"
           style="fill:#ff7f0e;fill-opacity:0.4;fill-rule:nonzero;stroke:none"
           id="path540" /></g></g><g
       id="g542"><g
         id="g544"
         clip-path="url(#clipPath548)"><path
           d="m 309.79789,36 h 7.20145 v 0 z"
           style="fill:#ff7f0e;fill-opacity:0.4;fill-rule:nonzero;stroke:none"
           id="path550" /></g></g><g
       id="g552"><g
         id="g554"
         clip-path="url(#clipPath558)"><path
           d="m 316.99934,36 h 7.20146 v 4.970057 h -7.20146 z"
           style="fill:#ff7f0e;fill-opacity:0.4;fill-rule:nonzero;stroke:none"
           id="path560" /></g></g><g
       id="g562"><g
         id="g564"
         clip-path="url(#clipPath568)"><path
           d="m 324.2008,36 h 7.20146 v 0 z"
           style="fill:#ff7f0e;fill-opacity:0.4;fill-rule:nonzero;stroke:none"
           id="path570" /></g></g><g
       id="g572"><g
         id="g574"
         clip-path="url(#clipPath578)"><path
           d="m 331.40226,36 h 7.20146 v 18.223543 h -7.20146 z"
           style="fill:#ff7f0e;fill-opacity:0.4;fill-rule:nonzero;stroke:none"
           id="path580" /></g></g><g
       id="g582"><path
         d="M 70.709508,36 V 32.5"
         style="fill:#000000;fill-opacity:1;fill-rule:nonzero;stroke:#000000;stroke-width:0.8;stroke-linecap:butt;stroke-linejoin:round;stroke-miterlimit:10;stroke-dasharray:none;stroke-opacity:1"
         id="path584" /><g
         id="g586"
         transform="translate(62.756383,21.40625)"><text
           transform="scale(1,-1)"
           style="font-variant:normal;font-weight:normal;font-size:10px;font-family:'DejaVu Sans';-inkscape-font-specification:DejaVuSans;writing-mode:lr-tb;fill:#000000;fill-opacity:1;fill-rule:nonzero;stroke:none"
           id="text590"><tspan
             x="0 6.3600001 9.54"
             y="0"
             id="tspan588">0.0</tspan></text></g><path
         d="M 124.28835,36 V 32.5"
         style="fill:#000000;fill-opacity:1;fill-rule:nonzero;stroke:#000000;stroke-width:0.8;stroke-linecap:butt;stroke-linejoin:round;stroke-miterlimit:10;stroke-dasharray:none;stroke-opacity:1"
         id="path592" /><g
         id="g594"
         transform="translate(116.33522,21.40625)"><text
           transform="scale(1,-1)"
           style="font-variant:normal;font-weight:normal;font-size:10px;font-family:'DejaVu Sans';-inkscape-font-specification:DejaVuSans;writing-mode:lr-tb;fill:#000000;fill-opacity:1;fill-rule:nonzero;stroke:none"
           id="text598"><tspan
             x="0 6.3600001 9.54"
             y="0"
             id="tspan596">0.2</tspan></text></g><path
         d="M 177.86719,36 V 32.5"
         style="fill:#000000;fill-opacity:1;fill-rule:nonzero;stroke:#000000;stroke-width:0.8;stroke-linecap:butt;stroke-linejoin:round;stroke-miterlimit:10;stroke-dasharray:none;stroke-opacity:1"
         id="path600" /><g
         id="g602"
         transform="translate(169.91407,21.40625)"><text
           transform="scale(1,-1)"
           style="font-variant:normal;font-weight:normal;font-size:10px;font-family:'DejaVu Sans';-inkscape-font-specification:DejaVuSans;writing-mode:lr-tb;fill:#000000;fill-opacity:1;fill-rule:nonzero;stroke:none"
           id="text606"><tspan
             x="0 6.3600001 9.54"
             y="0"
             id="tspan604">0.4</tspan></text></g><path
         d="M 231.44603,36 V 32.5"
         style="fill:#000000;fill-opacity:1;fill-rule:nonzero;stroke:#000000;stroke-width:0.8;stroke-linecap:butt;stroke-linejoin:round;stroke-miterlimit:10;stroke-dasharray:none;stroke-opacity:1"
         id="path608" /><g
         id="g610"
         transform="translate(223.49291,21.40625)"><text
           transform="scale(1,-1)"
           style="font-variant:normal;font-weight:normal;font-size:10px;font-family:'DejaVu Sans';-inkscape-font-specification:DejaVuSans;writing-mode:lr-tb;fill:#000000;fill-opacity:1;fill-rule:nonzero;stroke:none"
           id="text614"><tspan
             x="0 6.3600001 9.54"
             y="0"
             id="tspan612">0.6</tspan></text></g><path
         d="M 285.02487,36 V 32.5"
         style="fill:#000000;fill-opacity:1;fill-rule:nonzero;stroke:#000000;stroke-width:0.8;stroke-linecap:butt;stroke-linejoin:round;stroke-miterlimit:10;stroke-dasharray:none;stroke-opacity:1"
         id="path616" /><g
         id="g618"
         transform="translate(277.07175,21.40625)"><text
           transform="scale(1,-1)"
           style="font-variant:normal;font-weight:normal;font-size:10px;font-family:'DejaVu Sans';-inkscape-font-specification:DejaVuSans;writing-mode:lr-tb;fill:#000000;fill-opacity:1;fill-rule:nonzero;stroke:none"
           id="text622"><tspan
             x="0 6.3600001 9.54"
             y="0"
             id="tspan620">0.8</tspan></text></g><path
         d="M 338.60372,36 V 32.5"
         style="fill:#000000;fill-opacity:1;fill-rule:nonzero;stroke:#000000;stroke-width:0.8;stroke-linecap:butt;stroke-linejoin:round;stroke-miterlimit:10;stroke-dasharray:none;stroke-opacity:1"
         id="path624" /><g
         id="g626"
         transform="translate(330.65059,21.40625)"><text
           transform="scale(1,-1)"
           style="font-variant:normal;font-weight:normal;font-size:10px;font-family:'DejaVu Sans';-inkscape-font-specification:DejaVuSans;writing-mode:lr-tb;fill:#000000;fill-opacity:1;fill-rule:nonzero;stroke:none"
           id="text630"><tspan
             x="0 6.3600001 9.54"
             y="0"
             id="tspan628">1.0</tspan></text></g><g
         id="g632"
         transform="translate(153.11094,7.734375)"><text
           transform="scale(1,-1)"
           style="font-variant:normal;font-weight:normal;font-size:10px;font-family:'DejaVu Sans';-inkscape-font-specification:DejaVuSans;writing-mode:lr-tb;fill:#000000;fill-opacity:1;fill-rule:nonzero;stroke:none"
           id="text636"><tspan
             x="0 5.3981252 11.548125 17.468124 23.618126 29.958124 35.168125 41.508125 45.428123 51.578125 54.358124 60.698124 63.878124 71.578125 74.358124 79.568123 83.488129 89.618126 95.958122 101.45812 107.60812 110.78812 117.51938 123.64938 127.56937 130.34938"
             y="0"
             id="tspan634">Levenshtein Distance Ratio</tspan></text></g><path
         d="M 54,36 H 50.5"
         style="fill:#000000;fill-opacity:1;fill-rule:nonzero;stroke:#000000;stroke-width:0.8;stroke-linecap:butt;stroke-linejoin:round;stroke-miterlimit:10;stroke-dasharray:none;stroke-opacity:1"
         id="path638" /><g
         id="g640"
         transform="translate(40.640625,32.203125)"><text
           transform="scale(1,-1)"
           style="font-variant:normal;font-weight:normal;font-size:10px;font-family:'DejaVu Sans';-inkscape-font-specification:DejaVuSans;writing-mode:lr-tb;fill:#000000;fill-opacity:1;fill-rule:nonzero;stroke:none"
           id="text644"><tspan
             x="0"
             y="0"
             id="tspan642">0</tspan></text></g><path
         d="M 54,80.534562 H 50.5"
         style="fill:#000000;fill-opacity:1;fill-rule:nonzero;stroke:#000000;stroke-width:0.8;stroke-linecap:butt;stroke-linejoin:round;stroke-miterlimit:10;stroke-dasharray:none;stroke-opacity:1"
         id="path646" /><g
         id="g648"
         transform="translate(40.640625,76.737687)"><text
           transform="scale(1,-1)"
           style="font-variant:normal;font-weight:normal;font-size:10px;font-family:'DejaVu Sans';-inkscape-font-specification:DejaVuSans;writing-mode:lr-tb;fill:#000000;fill-opacity:1;fill-rule:nonzero;stroke:none"
           id="text652"><tspan
             x="0"
             y="0"
             id="tspan650">1</tspan></text></g><path
         d="M 54,125.06912 H 50.5"
         style="fill:#000000;fill-opacity:1;fill-rule:nonzero;stroke:#000000;stroke-width:0.8;stroke-linecap:butt;stroke-linejoin:round;stroke-miterlimit:10;stroke-dasharray:none;stroke-opacity:1"
         id="path654" /><g
         id="g656"
         transform="translate(40.640625,121.27225)"><text
           transform="scale(1,-1)"
           style="font-variant:normal;font-weight:normal;font-size:10px;font-family:'DejaVu Sans';-inkscape-font-specification:DejaVuSans;writing-mode:lr-tb;fill:#000000;fill-opacity:1;fill-rule:nonzero;stroke:none"
           id="text660"><tspan
             x="0"
             y="0"
             id="tspan658">2</tspan></text></g><path
         d="M 54,169.60369 H 50.5"
         style="fill:#000000;fill-opacity:1;fill-rule:nonzero;stroke:#000000;stroke-width:0.8;stroke-linecap:butt;stroke-linejoin:round;stroke-miterlimit:10;stroke-dasharray:none;stroke-opacity:1"
         id="path662" /><g
         id="g664"
         transform="translate(40.640625,165.80681)"><text
           transform="scale(1,-1)"
           style="font-variant:normal;font-weight:normal;font-size:10px;font-family:'DejaVu Sans';-inkscape-font-specification:DejaVuSans;writing-mode:lr-tb;fill:#000000;fill-opacity:1;fill-rule:nonzero;stroke:none"
           id="text668"><tspan
             x="0"
             y="0"
             id="tspan666">3</tspan></text></g><path
         d="M 54,214.13825 H 50.5"
         style="fill:#000000;fill-opacity:1;fill-rule:nonzero;stroke:#000000;stroke-width:0.8;stroke-linecap:butt;stroke-linejoin:round;stroke-miterlimit:10;stroke-dasharray:none;stroke-opacity:1"
         id="path670" /><g
         id="g672"
         transform="translate(40.640625,210.34137)"><text
           transform="scale(1,-1)"
           style="font-variant:normal;font-weight:normal;font-size:10px;font-family:'DejaVu Sans';-inkscape-font-specification:DejaVuSans;writing-mode:lr-tb;fill:#000000;fill-opacity:1;fill-rule:nonzero;stroke:none"
           id="text676"><tspan
             x="0"
             y="0"
             id="tspan674">4</tspan></text></g><g
         id="g678"
         transform="rotate(90,-45.567031,80.129531)"><text
           transform="scale(1,-1)"
           style="font-variant:normal;font-weight:normal;font-size:10px;font-family:'DejaVu Sans';-inkscape-font-specification:DejaVuSans;writing-mode:lr-tb;fill:#000000;fill-opacity:1;fill-rule:nonzero;stroke:none"
           id="text682"><tspan
             x="0 7.6999998 13.85 20.190001 25.4 28.18 32.099998"
             y="0"
             id="tspan680">Density</tspan></text></g></g><g
       id="g684"><g
         id="g686"
         clip-path="url(#clipPath690)"><path
           d="m 69.218182,36.016038 9.176793,0.128994 6.117862,0.314396 4.588396,0.472539 4.588397,0.736552 4.588396,1.01033 4.588394,1.280175 3.05893,1.036535 3.05894,1.259974 3.05893,1.603859 1.52946,0.98042 1.52947,1.129229 1.52946,1.300802 1.52947,1.494051 1.52946,1.706681 1.52947,1.935291 1.52947,2.175565 1.52946,2.422573 1.52947,2.671115 3.05893,6.069121 3.05893,6.966607 3.05893,7.744504 3.05893,8.397073 3.05893,8.944994 4.5884,14.270542 6.11786,20.09401 4.5884,14.97079 3.05893,9.26395 1.52946,4.24414 1.52947,3.90455 1.52946,3.50645 1.52947,3.05464 1.52946,2.55628 1.52947,2.02075 1.52946,1.45916 1.52947,0.88395 1.52947,0.30825 1.52946,-0.25476 1.52947,-0.79247 1.52946,-1.2935 1.52947,-1.74821 1.52946,-2.14912 1.52947,-2.49116 3.05893,-5.76295 3.05893,-6.40816 7.64733,-16.41457 4.5884,-9.13661 4.58839,-8.47608 6.11786,-10.63329 7.64733,-12.76691 6.11786,-9.79861 4.5884,-6.900258 3.05893,-4.280264 3.05893,-3.965005 3.05893,-3.620177 3.05893,-3.272874 3.05893,-2.948702 3.05894,-2.662887 3.05893,-2.415627 3.05893,-2.194179 3.05893,-1.980563 3.05893,-1.760753 3.05893,-1.530936 3.05893,-1.298517 3.05893,-1.07843 3.05893,-0.887007 4.5884,-1.060805 6.11786,-1.115306 6.11786,-0.898052 4.5884,-0.485975 4.5884,-0.270499 4.58839,-0.06296 6.11787,0.151982 4.58839,0.289786 3.05893,0.334839 3.05893,0.501756 3.05894,0.688951 9.17679,2.387472 1.52946,0.210786 1.52947,0.08567 1.52947,-0.06053 1.52946,-0.220896 1.52947,-0.387057 1.52946,-0.549881 1.52947,-0.700318 3.05893,-1.763292 9.17679,-5.982822 3.05893,-1.525432 3.05893,-1.137267 3.05893,-0.777896 3.05894,-0.489972 3.05893,-0.284945 3.05893,-0.153302 v 0"
           style="fill:none;stroke:#1f77b4;stroke-width:1.5;stroke-linecap:square;stroke-linejoin:round;stroke-miterlimit:10;stroke-dasharray:none;stroke-opacity:1"
           id="path692" /></g></g><g
       id="g694"><g
         id="g696"
         clip-path="url(#clipPath700)"><path
           d="m 90.911748,36.006494 10.940252,0.143024 9.57272,0.425493 12.30778,0.612492 2.73507,0.307584 2.73506,0.489404 2.73506,0.779057 1.36753,0.54538 1.36753,0.67952 1.36754,0.837416 1.36753,1.017873 1.36753,1.217942 1.36753,1.433296 1.36753,1.658932 1.36753,1.890037 1.36754,2.122867 1.36753,2.355405 2.73506,5.409082 2.73506,6.366738 2.73507,7.402489 2.73506,8.54598 2.73506,9.779223 2.73506,11.044422 2.73507,12.26382 2.73506,13.34548 4.10259,21.44823 4.1026,21.73099 2.73506,13.46348 1.36753,6.09908 1.36753,5.53066 1.36754,4.86471 1.36753,4.12067 1.36753,3.325 1.36753,2.50906 1.36753,1.70603 1.36753,0.94705 1.36754,0.25763 1.36753,-0.34555 1.36753,-0.85636 1.36753,-1.2795 1.36753,-1.62903 1.36753,-1.92528 1.36753,-2.1909 1.36754,-2.44637 1.36753,-2.70605 1.36753,-2.97558 2.73506,-6.77194 2.73506,-7.74228 5.47013,-16.8553 13.67531,-42.40438 4.1026,-12.75784 2.73506,-7.88204 2.73506,-7.229634 2.73507,-6.497346 2.73506,-5.678188 2.73506,-4.832419 2.73507,-4.099692 2.73506,-3.588357 4.10259,-4.869549 6.83766,-7.588467 4.1026,-4.395992 2.73506,-2.655153 2.73506,-2.17953 1.36753,-0.858751 1.36754,-0.69658 1.36753,-0.54349 2.73506,-0.716314 4.10259,-0.612796 4.1026,-0.676514 13.67531,-2.766223 15.04285,-2.447939 4.10259,-0.211674 2.73507,0.06551 2.73506,0.304403 2.73506,0.599923 2.73506,0.864025 4.1026,1.373056 1.36753,0.329339 1.36753,0.203314 1.36753,0.0518 1.36754,-0.112032 1.36753,-0.273329 2.73506,-0.951184 8.20519,-3.59631 2.73506,-0.745767 2.73506,-0.454883 2.73507,-0.24223 2.73506,-0.113293 v 0"
           style="fill:none;stroke:#ff7f0e;stroke-width:1.5;stroke-linecap:square;stroke-linejoin:round;stroke-miterlimit:10;stroke-dasharray:none;stroke-opacity:1"
           id="path702" /></g></g><g
       id="g704"><path
         d="M 54,36 V 253.44"
         style="fill:none;stroke:#000000;stroke-width:0.8;stroke-linecap:square;stroke-linejoin:miter;stroke-miterlimit:10;stroke-dasharray:none;stroke-opacity:1"
         id="path706" /><path
         d="M 388.8,36 V 253.44"
         style="fill:none;stroke:#000000;stroke-width:0.8;stroke-linecap:square;stroke-linejoin:miter;stroke-miterlimit:10;stroke-dasharray:none;stroke-opacity:1"
         id="path708" /><path
         d="M 54,36 H 388.8"
         style="fill:none;stroke:#000000;stroke-width:0.8;stroke-linecap:square;stroke-linejoin:miter;stroke-miterlimit:10;stroke-dasharray:none;stroke-opacity:1"
         id="path710" /><path
         d="M 54,253.44 H 388.8"
         style="fill:none;stroke:#000000;stroke-width:0.8;stroke-linecap:square;stroke-linejoin:miter;stroke-miterlimit:10;stroke-dasharray:none;stroke-opacity:1"
         id="path712" /><g
         id="g714"
         transform="translate(37.040625,259.44)"><text
           transform="scale(1,-1)"
           style="font-variant:normal;font-weight:normal;font-size:12px;font-family:'DejaVu Sans';-inkscape-font-specification:DejaVuSans;writing-mode:lr-tb;fill:#000000;fill-opacity:1;fill-rule:nonzero;stroke:none"
           id="text718"><tspan
             x="0 7.6199999 10.956 22.643999 25.98 29.316 36.672001 41.604 44.939999 49.644001 56.748001 60.563999 68.795998 76.176003 80.879997 90.695999 98.075996 105.456 113.064 116.88 126.18 133.78799 141.168 147.42 153.672 161.052 168.672 172.48801 179.19275 186.54875 192.80075 199.05275 208.86874 216.21275 220.94162 228.56163 234.81363 238.62962 245.98563 253.59363 261.21362 265.02963 273.03448 279.63449 284.3385 291.9465 299.30249 302.63849 306.4545 313.15924 320.51526 326.76724 333.01926 342.83524 350.17926 354.90811 362.52814"
             y="0"
             id="tspan716">Similarity Between Guessed Passwords and Actual Passwords</tspan></text></g><path
         d="m 257.56562,236.84625 h 20 v 7 h -20 z"
         style="fill:#1f77b4;fill-opacity:0.4;fill-rule:nonzero;stroke:none"
         id="path720" /><g
         id="g722"
         transform="translate(285.56562,236.84625)"><text
           transform="scale(1,-1)"
           style="font-variant:normal;font-weight:normal;font-size:10px;font-family:'DejaVu Sans';-inkscape-font-specification:DejaVuSans;writing-mode:lr-tb;fill:#000000;fill-opacity:1;fill-rule:nonzero;stroke:none"
           id="text726"><tspan
             x="0 7.75 13.78 18.983749 22.59375 28.953751 32.133751 40.763748 46.883751 53.233749 59.383751"
             y="0"
             id="tspan724">GPT-3 Model</tspan></text></g><path
         d="m 257.56562,222.17437 h 20 v 7 h -20 z"
         style="fill:#ff7f0e;fill-opacity:0.4;fill-rule:nonzero;stroke:none"
         id="path728" /><g
         id="g730"
         transform="translate(285.56562,222.17437)"><text
           transform="scale(1,-1)"
           style="font-variant:normal;font-weight:normal;font-size:10px;font-family:'DejaVu Sans';-inkscape-font-specification:DejaVuSans;writing-mode:lr-tb;fill:#000000;fill-opacity:1;fill-rule:nonzero;stroke:none"
           id="text734"><tspan
             x="0 4.4225001 10.5425 16.8925 20.0725 26.432501 32.7925 39.1525 42.3325 47.924999 54.055 59.264999 64.474998 72.654999 78.775002 82.713127 89.063126"
             y="0"
             id="tspan732">Top 100 Passwords</tspan></text></g></g></g></svg>
